<svg width="50" height="50" viewBox="0 0 50 50" fill="none" xmlns="http://www.w3.org/2000/svg">
<g clip-path="url(#clip0_1_224)">
<path fill-rule="evenodd" clip-rule="evenodd" d="M45.3885 16.083L43.7545 17.6574C40.214 14.6841 35.6745 13.0211 30.9545 13.0211C27.7766 13.0211 24.6004 13.8083 21.877 15.2072L28.7757 8.56015C29.3204 8.90948 29.9553 9.08496 30.5919 9.08496C31.4991 9.08496 32.4081 8.73563 33.1332 8.03534C34.5851 6.63639 34.5851 4.44858 33.1332 3.04962C32.4064 2.34933 31.4991 2 30.5919 2C29.6847 2 28.7757 2.34933 28.0506 3.04962C26.8711 4.27473 26.6889 6.02301 27.506 7.33504L18.7911 15.732L17.157 14.1576L12.7094 18.443L14.3434 20.0175L5.44638 28.5899C4.9017 28.2406 4.26681 28.0651 3.63021 28.0651C2.72298 28.0651 1.81404 28.4144 1.08894 29.1147C-0.362979 30.5137 -0.362979 32.7015 1.08894 34.1005C1.81574 34.7122 2.72298 35.0632 3.63021 35.0632C4.53745 35.0632 5.44638 34.7138 6.17149 34.0135C7.35106 32.877 7.53319 31.1271 6.71617 29.7281L13.6149 23.081C9.98426 29.8167 10.8013 38.2137 16.1562 44.1604L14.5221 45.8218L19.0617 50.1072L23.5094 45.8218L19.0617 41.5364L17.5179 43.0239C12.2532 37.0755 11.9809 28.5046 16.4285 22.2069L17.1553 22.9072L21.6949 18.6218L20.8779 17.9215C23.7834 15.9092 27.3238 14.8595 30.9545 14.8595C35.2217 14.8595 39.2149 16.347 42.483 18.9711L40.8489 20.4586L45.3885 24.744L49.8362 20.4586L45.3885 16.0846V16.083ZM20.9681 45.8218L19.0617 47.6586L17.1553 45.8218L19.0617 43.985L20.9681 45.8218V45.8218ZM29.3204 4.36176C29.683 4.01243 30.1375 3.83695 30.5919 3.83695C31.0464 3.83695 31.4992 4.01243 31.8634 4.36176C32.5902 5.06206 32.5902 6.11168 31.8634 6.81034C31.5009 7.15967 31.0464 7.33515 30.5919 7.33515C30.1375 7.33515 29.6847 7.15967 29.3204 6.81034C28.5936 6.1986 28.5936 5.06042 29.3204 4.36176V4.36176ZM4.89998 32.7885C4.53742 33.1378 4.08296 33.3133 3.62849 33.3133C3.17402 33.3133 2.72125 33.1378 2.357 32.7885C1.99444 32.5261 1.81232 32.0882 1.81232 31.5634C1.81232 31.1255 1.99444 30.6892 2.357 30.3383C2.71955 29.9873 3.17402 29.8135 3.62849 29.8135C4.08296 29.8135 4.53572 29.989 4.89998 30.3383C5.62678 31.0386 5.62678 32.1751 4.89998 32.7869V32.7885ZM17.0651 20.4554L15.1588 18.6185L17.0651 16.7817L18.9715 18.6185L17.0651 20.4554V20.4554ZM45.3885 22.2921L43.4821 20.4552L45.3885 18.6184L47.2949 20.4552L45.3885 22.2921V22.2921Z" fill="#333333"/>
</g>
<defs>
<clipPath id="clip0_1_224">
<rect width="50" height="50" fill="white"/>
</clipPath>
</defs>
</svg>
